<?xml version="1.0" encoding="UTF-8" standalone="no"?>
<!-- Created with Inkscape (http://www.inkscape.org/) -->

<svg
   xmlns:dc="http://purl.org/dc/elements/1.1/"
   xmlns:cc="http://creativecommons.org/ns#"
   xmlns:rdf="http://www.w3.org/1999/02/22-rdf-syntax-ns#"
   xmlns:svg="http://www.w3.org/2000/svg"
   xmlns="http://www.w3.org/2000/svg"
   xmlns:sodipodi="http://sodipodi.sourceforge.net/DTD/sodipodi-0.dtd"
   xmlns:inkscape="http://www.inkscape.org/namespaces/inkscape"
   width="27.019464mm"
   height="20.342653mm"
   viewBox="0 0 27.019464 20.342653"
   version="1.1"
   id="svg892"
   inkscape:version="0.92.4 5da689c313, 2019-01-14"
   sodipodi:docname="elixir-aai-logo-for-button.svg">
  <defs
     id="defs886">
    <clipPath
       id="clip-path">
      <rect
         class="cls-1"
         x="17.02"
         y="26.450001"
         width="102.1"
         height="76.900002"
         id="rect836" />
    </clipPath>
  </defs>
  <sodipodi:namedview
     id="base"
     pagecolor="#ffffff"
     bordercolor="#666666"
     borderopacity="1.0"
     inkscape:pageopacity="0.0"
     inkscape:pageshadow="2"
     inkscape:zoom="3.959798"
     inkscape:cx="73.416715"
     inkscape:cy="9.7523407"
     inkscape:document-units="mm"
     inkscape:current-layer="layer1"
     showgrid="false"
     fit-margin-top="0"
     fit-margin-left="0"
     fit-margin-right="0"
     fit-margin-bottom="0"
     inkscape:window-width="3840"
     inkscape:window-height="2131"
     inkscape:window-x="0"
     inkscape:window-y="0"
     inkscape:window-maximized="1" />
  <metadata
     id="metadata889">
    <rdf:RDF>
      <cc:Work
         rdf:about="">
        <dc:format>image/svg+xml</dc:format>
        <dc:type
           rdf:resource="http://purl.org/dc/dcmitype/StillImage" />
        <dc:title />
      </cc:Work>
    </rdf:RDF>
  </metadata>
  <g
     inkscape:label="Layer 1"
     inkscape:groupmode="layer"
     id="layer1"
     transform="translate(-69.611091,-73.28032)">
    <g
       transform="matrix(0.26458333,0,0,0.26458333,65.113389,66.282091)"
       class="cls-3"
       clip-path="url(#clip-path)"
       id="g847"
       style="fill:#ffffff;fill-opacity:1">
      <path
         inkscape:connector-curvature="0"
         class="cls-4"
         d="M 113.35,26.45 A 5.78,5.78 0 0 0 108.27,35 c -0.57,0.29 -1.91,1 -3.79,1.94 a 4.3,4.3 0 0 0 -8.17,1.88 4.23,4.23 0 0 0 0.6,2.17 c -1,0.54 -2,1.09 -3,1.68 a 3.37,3.37 0 0 0 -6.2,1.85 3.29,3.29 0 0 0 0.37,1.48 q -1.6,1 -3.21,2 a 2.46,2.46 0 0 0 -4.06,1.88 2.74,2.74 0 0 0 0.08,0.64 114.62,114.62 0 0 0 -11.8,8.61 C 65.18,50.38 59.42,40.8 51.41,33 v 0 c -0.94,-0.92 -1.72,-0.51 -0.64,0.64 v 0 c 6.82,7.36 12.17,17.92 15.81,27.58 -13.82,11.8 -29,34.66 -12.35,41.84 2.43,1 3.54,-1 2.49,-1.57 -0.19,-0.11 -7.62,-4.13 -2.9,-16.48 h 11.9 a 1.15,1.15 0 0 0 0,-2.3 H 54.81 a 48.16,48.16 0 0 1 2.35,-4.37 h 8.56 a 1.16,1.16 0 0 0 0,-2.31 h -7.09 c 0.89,-1.32 1.88,-2.7 3,-4.15 h 4.1 a 1.16,1.16 0 0 0 0,-2.31 h -2.28 q 1.93,-2.37 4.3,-4.95 v -0.05 c 3.18,9.09 4.69,16.83 4.36,19.43 a 2.69,2.69 0 0 1 -1.45,2.16 c -0.59,0.28 -0.83,1.09 0.09,1.36 2.92,0.86 4.72,-2 5,-4.37 0.28,-2.37 -1.27,-11 -5.49,-21.2 A 107.28,107.28 0 0 1 82.05,52 a 2.43,2.43 0 0 0 1.23,0.33 2.47,2.47 0 0 0 2.47,-2.47 2.61,2.61 0 0 0 0,-0.48 c 1.1,-0.77 2.2,-1.52 3.28,-2.24 a 3.38,3.38 0 0 0 5.49,-2.64 3.59,3.59 0 0 0 -0.1,-0.81 c 1.08,-0.68 2.13,-1.32 3.14,-1.92 a 4.3,4.3 0 0 0 7.24,-4.17 c 1.83,-1 3.17,-1.75 3.83,-2.12 a 5.78,5.78 0 1 0 4.77,-9 z"
         id="path845"
         style="fill:#ffffff;fill-opacity:1" />
    </g>
    <path
       inkscape:connector-curvature="0"
       class="cls-5"
       d="m 77.70491,85.522591 a 4.2888958,4.2888958 0 0 0 0.161396,-0.420688 3.8708542,3.8708542 0 0 0 0.161396,-0.563562 l 0.579437,-2.513542 c 0.04762,-0.264583 0.08467,-0.447145 0.09525,-0.560916 a 1.4737292,1.4737292 0 0 0 0.01852,-0.304271 v -0.113771 h 1.322917 l -0.796396,3.4925 c -0.05556,0.246062 -0.09525,0.436562 -0.113771,0.5715 a 1.984375,1.984375 0 0 0 -0.0291,0.410104 z"
       id="path849"
       style="fill:#544f4c;fill-opacity:1;stroke-width:0.26458332" />
    <path
       inkscape:connector-curvature="0"
       class="cls-5"
       d="m 74.122452,82.024799 a 0.7223125,0.7223125 0 0 0 0.03704,-0.227541 0.26458333,0.26458333 0 0 0 -0.01852,-0.09525 c -0.03704,-0.05556 -0.132292,-0.08467 -0.264584,-0.08467 h -2.021416 a 0.4048125,0.4048125 0 0 0 -0.28575,0.08467 0.48947917,0.48947917 0 0 0 -0.132292,0.322791 l -0.238125,1.02923 h 2.685521 z m 0.304271,3.497792 h -3.894667 a 0.98425,0.98425 0 0 1 -0.79375,-0.264584 0.73554167,0.73554167 0 0 1 -0.127,-0.431271 2.016125,2.016125 0 0 1 0.06615,-0.486833 l 0.486833,-2.116666 a 1.7197917,1.7197917 0 0 1 0.465667,-0.915458 1.3890625,1.3890625 0 0 1 0.915458,-0.264584 h 2.881313 c 0.410104,0 0.677333,0.08467 0.809625,0.264584 a 0.67733333,0.67733333 0 0 1 0.124354,0.439208 1.8309167,1.8309167 0 0 1 -0.06615,0.47625 l -0.314854,1.399645 h -3.915833 l -0.209021,0.915459 a 1.3229167,1.3229167 0 0 0 -0.0291,0.219604 c 0,0.04763 0,0.08467 0.02117,0.103187 0.02117,0.01852 0.113771,0.08731 0.246062,0.08731 h 2.8575 a 3.4395833,3.4395833 0 0 0 0.743479,-0.07673 l -0.264583,0.648229 z"
       id="path851"
       style="fill:#544f4c;fill-opacity:1;stroke-width:0.26458332" />
    <path
       inkscape:connector-curvature="0"
       class="cls-5"
       d="m 75.397744,85.522591 c 0.06085,-0.14023 0.111125,-0.288396 0.171979,-0.470959 a 4.7625,4.7625 0 0 0 0.171979,-0.629708 l 1.013354,-4.646083 c 0.06085,-0.288396 0.100542,-0.500062 0.121708,-0.629708 0.02117,-0.129646 0.01852,-0.264584 0.01852,-0.468313 h 1.394354 l -1.254125,5.744104 c -0.06085,0.264583 -0.103187,0.492125 -0.121708,0.640292 a 2.2992292,2.2992292 0 0 0 -0.03175,0.460375 z"
       id="path853"
       style="fill:#544f4c;fill-opacity:1;stroke-width:0.26458332" />
    <path
       inkscape:connector-curvature="0"
       class="cls-5"
       d="m 85.303744,85.522591 a 4.2888958,4.2888958 0 0 0 0.161396,-0.420688 3.8443958,3.8443958 0 0 0 0.164041,-0.563562 l 0.579438,-2.516187 c 0.04763,-0.264584 0.08731,-0.447146 0.09525,-0.560917 a 1.4737292,1.4737292 0 0 0 0.01852,-0.304271 v -0.111125 h 1.322916 l -0.799041,3.4925 c -0.05556,0.246062 -0.09525,0.436562 -0.113771,0.5715 a 1.984375,1.984375 0 0 0 -0.0291,0.410104 z"
       id="path855"
       style="fill:#544f4c;fill-opacity:1;stroke-width:0.26458332" />
    <path
       inkscape:connector-curvature="0"
       class="cls-5"
       d="m 91.468536,81.797258 c -0.142875,0 -0.28575,-0.01852 -0.449792,-0.01852 h -0.637646 a 0.47095833,0.47095833 0 0 0 -0.28575,0.07673 0.52916667,0.52916667 0 0 0 -0.161396,0.301625 l -0.529166,2.38125 a 3.6195,3.6195 0 0 0 -0.134938,0.87577 v 0.105834 h -1.402292 c 0.05556,-0.142875 0.113771,-0.264584 0.150813,-0.410104 0.03704,-0.145521 0.08731,-0.314855 0.153458,-0.5715 l 0.5715,-2.516188 c 0.06615,-0.246062 0.09525,-0.436562 0.124354,-0.579437 a 2.9104167,2.9104167 0 0 0 0.01852,-0.399521 h 1.172104 l -0.04763,0.455083 a 0.79375,0.79375 0 0 1 0.293688,-0.341312 0.94191667,0.94191667 0 0 1 0.505354,-0.113771 h 1.143 l 0.264583,0.494771 a 1.23825,1.23825 0 0 0 -0.161389,0.179917 c -0.06615,0.08731 -0.113771,0.124354 -0.142875,0.124354 -0.17198,-0.01852 -0.322792,-0.03704 -0.465667,-0.04762 z"
       id="path857"
       style="fill:#544f4c;fill-opacity:1;stroke-width:0.26458332" />
    <path
       inkscape:connector-curvature="0"
       class="cls-5"
       d="m 80.25814,79.479508 a 0.64558333,0.64558333 0 1 1 -0.642938,-0.645584 0.6429375,0.6429375 0 0 1 0.642938,0.645584 z"
       id="path859"
       style="fill:#544f4c;fill-opacity:1;stroke-width:0.26458332" />
  </g>
</svg>
